<?xml version="1.0" encoding="UTF-8" standalone="no"?>
<!DOCTYPE svg PUBLIC "-//W3C//DTD SVG 1.1//EN"
 "http://www.w3.org/Graphics/SVG/1.1/DTD/svg11.dtd">
<!-- Generated by graphviz version 2.26.0 (20091210.2329)
 -->
<!-- Title: Docker Pages: 1 -->
<svg width="1021pt" height="810pt"
 viewBox="0.00 0.00 1021.00 810.00" xmlns="http://www.w3.org/2000/svg" xmlns:xlink="http://www.w3.org/1999/xlink">
<g id="graph1" class="graph" transform="scale(1 1) rotate(0) translate(4 806)">
<title>Docker</title>
<polygon fill="white" stroke="white" points="-4,5 -4,-806 1018,-806 1018,5 -4,5"/>
<!-- REGISTER -->
<g id="node1" class="node"><title>REGISTER</title>
<polygon fill="none" stroke="black" points="288,-722 208,-722 208,-686 288,-686 288,-722"/>
<text text-anchor="middle" x="248" y="-700.9" font-family="Times Roman,serif" font-size="14.00">REGISTER</text>
</g>
<!-- pull -->
<g id="node19" class="node"><title>pull</title>
<ellipse fill="none" stroke="black" cx="302" cy="-625" rx="27" ry="19.0919"/>
<text text-anchor="middle" x="302" y="-621.9" font-family="Times Roman,serif" font-size="14.00">pull</text>
</g>
<!-- REGISTER&#45;&gt;pull -->
<g id="edge18" class="edge"><title>REGISTER&#45;&gt;pull</title>
<path fill="none" stroke="black" d="M260.524,-685.677C269.497,-672.55 281.499,-654.992 290.283,-642.142"/>
</g>
<!-- Dockerfile -->
<g id="node2" class="node"><title>Dockerfile</title>
<polygon fill="none" stroke="black" points="419.823,-696.708 484,-680.401 548.177,-696.708 548.117,-723.092 419.883,-723.092 419.823,-696.708"/>
<text text-anchor="middle" x="484" y="-700.9" font-family="Times Roman,serif" font-size="14.00">Dockerfile</text>
</g>
<!-- build -->
<g id="node8" class="node"><title>build</title>
<ellipse fill="none" stroke="black" cx="484" cy="-625" rx="31.1127" ry="19.0919"/>
<text text-anchor="middle" x="484" y="-621.9" font-family="Times Roman,serif" font-size="14.00">build</text>
</g>
<!-- Dockerfile&#45;&gt;build -->
<g id="edge2" class="edge"><title>Dockerfile&#45;&gt;build</title>
<path fill="none" stroke="black" d="M484,-680.297C484,-668.753 484,-655.054 484,-644.179"/>
</g>
<!-- IMAGE -->
<g id="node3" class="node"><title>IMAGE</title>
<polygon fill="none" stroke="black" points="515,-570 453,-570 453,-534 515,-534 515,-570"/>
<text text-anchor="middle" x="484" y="-548.9" font-family="Times Roman,serif" font-size="14.00">IMAGE</text>
</g>
<!-- push -->
<g id="node16" class="node"><title>push</title>
<ellipse fill="none" stroke="black" cx="29" cy="-479" rx="29.1951" ry="19.0919"/>
<text text-anchor="middle" x="29" y="-475.9" font-family="Times Roman,serif" font-size="14.00">push</text>
</g>
<!-- IMAGE&#45;&gt;push -->
<g id="edge14" class="edge"><title>IMAGE&#45;&gt;push</title>
<path fill="none" stroke="black" d="M452.873,-549.327C368.963,-541.906 139.527,-520.135 67,-498 61.6384,-496.364 56.1112,-494.024 50.9892,-491.544"/>
</g>
<!-- history -->
<g id="node23" class="node"><title>history</title>
<ellipse fill="none" stroke="black" cx="550" cy="-479" rx="38.1838" ry="19.0919"/>
<text text-anchor="middle" x="550" y="-475.9" font-family="Times Roman,serif" font-size="14.00">history</text>
</g>
<!-- IMAGE&#45;&gt;history -->
<g id="edge20" class="edge"><title>IMAGE&#45;&gt;history</title>
<path fill="none" stroke="black" d="M500.315,-533.955C510.698,-522.471 524.071,-507.679 534.328,-496.335"/>
</g>
<!-- images -->
<g id="node25" class="node"><title>images</title>
<ellipse fill="none" stroke="black" cx="645" cy="-479" rx="39.0967" ry="19.0919"/>
<text text-anchor="middle" x="645" y="-475.9" font-family="Times Roman,serif" font-size="14.00">images</text>
</g>
<!-- IMAGE&#45;&gt;images -->
<g id="edge22" class="edge"><title>IMAGE&#45;&gt;images</title>
<path fill="none" stroke="black" d="M515.042,-537.925C544.283,-524.667 587.737,-504.964 616.216,-492.051"/>
</g>
<!-- save -->
<g id="node27" class="node"><title>save</title>
<ellipse fill="none" stroke="black" cx="105" cy="-479" rx="28.9914" ry="19.0919"/>
<text text-anchor="middle" x="105" y="-475.9" font-family="Times Roman,serif" font-size="14.00">save</text>
</g>
<!-- IMAGE&#45;&gt;save -->
<g id="edge24" class="edge"><title>IMAGE&#45;&gt;save</title>
<path fill="none" stroke="black" d="M452.697,-550.249C391.748,-546.146 253.441,-533.42 143,-498 137.662,-496.288 132.144,-493.918 127.024,-491.432"/>
</g>
<!-- insert -->
<g id="node29" class="node"><title>insert</title>
<ellipse fill="none" stroke="black" cx="185" cy="-479" rx="33.234" ry="19.0919"/>
<text text-anchor="middle" x="185" y="-475.9" font-family="Times Roman,serif" font-size="14.00">insert</text>
</g>
<!-- IMAGE&#45;&gt;insert -->
<g id="edge26" class="edge"><title>IMAGE&#45;&gt;insert</title>
<path fill="none" stroke="black" d="M452.971,-547.715C404.087,-540.47 306.52,-523.997 227,-498 221.523,-496.209 215.805,-493.923 210.414,-491.562"/>
</g>
<!-- rmi -->
<g id="node31" class="node"><title>rmi</title>
<ellipse fill="none" stroke="black" cx="263" cy="-479" rx="27" ry="19.0919"/>
<text text-anchor="middle" x="263" y="-475.9" font-family="Times Roman,serif" font-size="14.00">rmi</text>
</g>
<!-- IMAGE&#45;&gt;rmi -->
<g id="edge28" class="edge"><title>IMAGE&#45;&gt;rmi</title>
<path fill="none" stroke="black" d="M452.913,-544.962C415.624,-536.06 351.564,-519.289 299,-498 294.022,-495.984 288.827,-493.49 283.982,-490.98"/>
</g>
<!-- load -->
<g id="node33" class="node"><title>load</title>
<ellipse fill="none" stroke="black" cx="336" cy="-479" rx="27.7881" ry="19.0919"/>
<text text-anchor="middle" x="336" y="-475.9" font-family="Times Roman,serif" font-size="14.00">load</text>
</g>
<!-- IMAGE&#45;&gt;load -->
<g id="edge30" class="edge"><title>IMAGE&#45;&gt;load</title>
<path fill="none" stroke="black" d="M443.798,-532.701C422.671,-522.493 396.376,-509.686 373,-498 368.22,-495.611 363.112,-493.015 358.265,-490.532"/>
<polygon fill="black" stroke="black" points="442.284,-535.856 452.812,-537.049 445.326,-529.552 442.284,-535.856"/>
</g>
<!-- import -->
<g id="node35" class="node"><title>import</title>
<ellipse fill="none" stroke="black" cx="419" cy="-479" rx="36.977" ry="19.0919"/>
<text text-anchor="middle" x="419" y="-475.9" font-family="Times Roman,serif" font-size="14.00">import</text>
</g>
<!-- IMAGE&#45;&gt;import -->
<g id="edge32" class="edge"><title>IMAGE&#45;&gt;import</title>
<path fill="none" stroke="black" d="M461.125,-526.31C452.287,-516.384 442.405,-505.286 434.435,-496.335"/>
<polygon fill="black" stroke="black" points="458.669,-528.814 467.933,-533.955 463.897,-524.159 458.669,-528.814"/>
</g>
<!-- inspect -->
<g id="node37" class="node"><title>inspect</title>
<ellipse fill="none" stroke="black" cx="741" cy="-479" rx="38.8909" ry="19.0919"/>
<text text-anchor="middle" x="741" y="-475.9" font-family="Times Roman,serif" font-size="14.00">inspect</text>
</g>
<!-- IMAGE&#45;&gt;inspect -->
<g id="edge34" class="edge"><title>IMAGE&#45;&gt;inspect</title>
<path fill="none" stroke="black" d="M515.154,-545.224C556.3,-535.986 630.819,-518.253 693,-498 698.965,-496.057 705.257,-493.756 711.251,-491.438"/>
</g>
<!-- run -->
<g id="node53" class="node"><title>run</title>
<ellipse fill="none" stroke="black" cx="484" cy="-376" rx="27" ry="19.0919"/>
<text text-anchor="middle" x="484" y="-372.9" font-family="Times Roman,serif" font-size="14.00">run</text>
</g>
<!-- IMAGE&#45;&gt;run -->
<g id="edge52" class="edge"><title>IMAGE&#45;&gt;run</title>
<path fill="none" stroke="black" d="M484,-533.828C484,-500.366 484,-429.308 484,-395.137"/>
</g>
<!-- CONTAINER -->
<g id="node4" class="node"><title>CONTAINER</title>
<polygon fill="none" stroke="black" points="833,-423.5 739,-423.5 739,-328.5 833,-328.5 833,-423.5"/>
<polyline fill="none" stroke="black" points="751,-423.5 739,-411.5 "/>
<polyline fill="none" stroke="black" points="739,-340.5 751,-328.5 "/>
<polyline fill="none" stroke="black" points="821,-328.5 833,-340.5 "/>
<polyline fill="none" stroke="black" points="833,-411.5 821,-423.5 "/>
<text text-anchor="middle" x="786" y="-372.9" font-family="Times Roman,serif" font-size="14.00">CONTAINER</text>
</g>
<!-- Running -->
<g id="node5" class="node"><title>Running</title>
<polygon fill="none" stroke="black" points="484,-292 421,-265 484,-238 547,-265 484,-292"/>
<polyline fill="none" stroke="black" points="432.03,-269.727 432.03,-260.273 "/>
<polyline fill="none" stroke="black" points="472.97,-242.727 495.03,-242.727 "/>
<polyline fill="none" stroke="black" points="535.97,-260.273 535.97,-269.727 "/>
<polyline fill="none" stroke="black" points="495.03,-287.273 472.97,-287.273 "/>
<text text-anchor="middle" x="484" y="-261.9" font-family="Times Roman,serif" font-size="14.00">Running</text>
</g>
<!-- CONTAINER&#45;&gt;Running -->
<g id="edge56" class="edge"><title>CONTAINER&#45;&gt;Running</title>
<path fill="none" stroke="black" d="M738.812,-358.656C677.598,-336.157 572.265,-297.442 518.203,-277.571"/>
</g>
<!-- Stoped -->
<g id="node6" class="node"><title>Stoped</title>
<polygon fill="none" stroke="black" points="484,-128 430,-101 484,-74 538,-101 484,-128"/>
<polyline fill="none" stroke="black" points="440.733,-106.367 440.733,-95.6334 "/>
<polyline fill="none" stroke="black" points="473.267,-79.3666 494.733,-79.3666 "/>
<polyline fill="none" stroke="black" points="527.267,-95.6334 527.267,-106.367 "/>
<polyline fill="none" stroke="black" points="494.733,-122.633 473.267,-122.633 "/>
<text text-anchor="middle" x="484" y="-97.9" font-family="Times Roman,serif" font-size="14.00">Stoped</text>
</g>
<!-- CONTAINER&#45;&gt;Stoped -->
<g id="edge58" class="edge"><title>CONTAINER&#45;&gt;Stoped</title>
<path fill="none" stroke="black" d="M833.248,-358.114C861.634,-344.62 895.377,-323.061 912,-292 938.843,-241.843 949.182,-207.056 912,-164 887.333,-135.436 637.551,-112.889 531.362,-104.519"/>
</g>
<!-- logs -->
<g id="node43" class="node"><title>logs</title>
<ellipse fill="none" stroke="black" cx="986" cy="-265" rx="27.0758" ry="19.0919"/>
<text text-anchor="middle" x="986" y="-261.9" font-family="Times Roman,serif" font-size="14.00">logs</text>
</g>
<!-- CONTAINER&#45;&gt;logs -->
<g id="edge42" class="edge"><title>CONTAINER&#45;&gt;logs</title>
<path fill="none" stroke="black" d="M833.266,-352.539C865.24,-336.302 908.188,-313.777 945,-292 952.189,-287.747 959.882,-282.794 966.64,-278.299"/>
</g>
<!-- port -->
<g id="node45" class="node"><title>port</title>
<ellipse fill="none" stroke="black" cx="642" cy="-265" rx="27" ry="19.0919"/>
<text text-anchor="middle" x="642" y="-261.9" font-family="Times Roman,serif" font-size="14.00">port</text>
</g>
<!-- CONTAINER&#45;&gt;port -->
<g id="edge44" class="edge"><title>CONTAINER&#45;&gt;port</title>
<path fill="none" stroke="black" d="M738.849,-339.654C712.109,-319.042 680.157,-294.413 660.471,-279.238"/>
</g>
<!-- ps -->
<g id="node47" class="node"><title>ps</title>
<ellipse fill="none" stroke="black" cx="714" cy="-265" rx="27" ry="19.0919"/>
<text text-anchor="middle" x="714" y="-261.9" font-family="Times Roman,serif" font-size="14.00">ps</text>
</g>
<!-- CONTAINER&#45;&gt;ps -->
<g id="edge46" class="edge"><title>CONTAINER&#45;&gt;ps</title>
<path fill="none" stroke="black" d="M755.048,-328.282C744.452,-311.947 733.261,-294.694 725.245,-282.336"/>
</g>
<!-- diff -->
<g id="node49" class="node"><title>diff</title>
<ellipse fill="none" stroke="black" cx="786" cy="-265" rx="27" ry="19.0919"/>
<text text-anchor="middle" x="786" y="-261.9" font-family="Times Roman,serif" font-size="14.00">diff</text>
</g>
<!-- CONTAINER&#45;&gt;diff -->
<g id="edge48" class="edge"><title>CONTAINER&#45;&gt;diff</title>
<path fill="none" stroke="black" d="M786,-328.282C786,-312.769 786,-296.429 786,-284.24"/>
</g>
<!-- export -->
<g id="node51" class="node"><title>export</title>
<ellipse fill="none" stroke="black" cx="867" cy="-265" rx="36.0624" ry="19.0919"/>
<text text-anchor="middle" x="867" y="-261.9" font-family="Times Roman,serif" font-size="14.00">export</text>
</g>
<!-- CONTAINER&#45;&gt;export -->
<g id="edge50" class="edge"><title>CONTAINER&#45;&gt;export</title>
<path fill="none" stroke="black" d="M820.821,-328.282C832.57,-312.182 844.969,-295.19 853.958,-282.873"/>
</g>
<!-- attach -->
<g id="node58" class="node"><title>attach</title>
<ellipse fill="none" stroke="black" cx="797" cy="-183" rx="34.1461" ry="19.0919"/>
<text text-anchor="middle" x="797" y="-179.9" font-family="Times Roman,serif" font-size="14.00">attach</text>
</g>
<!-- Running&#45;&gt;attach -->
<g id="edge60" class="edge"><title>Running&#45;&gt;attach</title>
<path fill="none" stroke="black" d="M525.648,-255.732C595.906,-240.032 732.459,-209.202 754,-202 759.573,-200.137 765.413,-197.819 770.928,-195.449"/>
</g>
<!-- cp -->
<g id="node60" class="node"><title>cp</title>
<ellipse fill="none" stroke="black" cx="876" cy="-183" rx="27" ry="19.0919"/>
<text text-anchor="middle" x="876" y="-179.9" font-family="Times Roman,serif" font-size="14.00">cp</text>
</g>
<!-- Running&#45;&gt;cp -->
<g id="edge62" class="edge"><title>Running&#45;&gt;cp</title>
<path fill="none" stroke="black" d="M524.531,-255.335C548.208,-249.864 578.708,-243.114 606,-238 709.424,-218.621 740.089,-235.013 840,-202 845.1,-200.315 850.344,-197.956 855.198,-195.471"/>
</g>
<!-- top -->
<g id="node62" class="node"><title>top</title>
<ellipse fill="none" stroke="black" cx="412" cy="-183" rx="27" ry="19.0919"/>
<text text-anchor="middle" x="412" y="-179.9" font-family="Times Roman,serif" font-size="14.00">top</text>
</g>
<!-- Running&#45;&gt;top -->
<g id="edge64" class="edge"><title>Running&#45;&gt;top</title>
<path fill="none" stroke="black" d="M466.571,-245.15C454.252,-231.12 437.938,-212.54 426.365,-199.36"/>
</g>
<!-- stop -->
<g id="node64" class="node"><title>stop</title>
<ellipse fill="none" stroke="black" cx="484" cy="-183" rx="27.0758" ry="19.0919"/>
<text text-anchor="middle" x="484" y="-179.9" font-family="Times Roman,serif" font-size="14.00">stop</text>
</g>
<!-- Running&#45;&gt;stop -->
<g id="edge66" class="edge"><title>Running&#45;&gt;stop</title>
<path fill="none" stroke="black" d="M484,-237.695C484,-226.048 484,-212.734 484,-202.159"/>
</g>
<!-- kill -->
<g id="node66" class="node"><title>kill</title>
<ellipse fill="none" stroke="black" cx="556" cy="-183" rx="27" ry="19.0919"/>
<text text-anchor="middle" x="556" y="-179.9" font-family="Times Roman,serif" font-size="14.00">kill</text>
</g>
<!-- Running&#45;&gt;kill -->
<g id="edge68" class="edge"><title>Running&#45;&gt;kill</title>
<path fill="none" stroke="black" d="M501.429,-245.15C513.748,-231.12 530.062,-212.54 541.635,-199.36"/>
</g>
<!-- restart -->
<g id="node68" class="node"><title>restart</title>
<ellipse fill="none" stroke="black" cx="636" cy="-183" rx="34.8574" ry="19.0919"/>
<text text-anchor="middle" x="636" y="-179.9" font-family="Times Roman,serif" font-size="14.00">restart</text>
</g>
<!-- Running&#45;&gt;restart -->
<g id="edge70" class="edge"><title>Running&#45;&gt;restart</title>
<path fill="none" stroke="black" d="M512.234,-249.769C540.566,-234.484 583.791,-211.165 610.942,-196.518"/>
</g>
<!-- wait -->
<g id="node70" class="node"><title>wait</title>
<ellipse fill="none" stroke="black" cx="717" cy="-183" rx="27.7881" ry="19.0919"/>
<text text-anchor="middle" x="717" y="-179.9" font-family="Times Roman,serif" font-size="14.00">wait</text>
</g>
<!-- Running&#45;&gt;wait -->
<g id="edge72" class="edge"><title>Running&#45;&gt;wait</title>
<path fill="none" stroke="black" d="M522.977,-254.51C563.019,-243.262 626.835,-224.022 680,-202 684.937,-199.955 690.111,-197.505 694.973,-195.054"/>
</g>
<!-- rm -->
<g id="node76" class="node"><title>rm</title>
<ellipse fill="none" stroke="black" cx="484" cy="-19" rx="27" ry="19.0919"/>
<text text-anchor="middle" x="484" y="-15.9" font-family="Times Roman,serif" font-size="14.00">rm</text>
</g>
<!-- Stoped&#45;&gt;rm -->
<g id="edge80" class="edge"><title>Stoped&#45;&gt;rm</title>
<path fill="none" stroke="black" d="M484,-73.6952C484,-62.0478 484,-48.7345 484,-38.159"/>
</g>
<!-- build&#45;&gt;IMAGE -->
<g id="edge4" class="edge"><title>build&#45;&gt;IMAGE</title>
<path fill="none" stroke="black" d="M484,-605.82C484,-598.097 484,-589.028 484,-580.558"/>
<polygon fill="black" stroke="black" points="487.5,-580.297 484,-570.297 480.5,-580.297 487.5,-580.297"/>
</g>
<!-- login -->
<g id="node10" class="node"><title>login</title>
<ellipse fill="none" stroke="black" cx="163" cy="-783" rx="31.1127" ry="19.0919"/>
<text text-anchor="middle" x="163" y="-779.9" font-family="Times Roman,serif" font-size="14.00">login</text>
</g>
<!-- login&#45;&gt;REGISTER -->
<g id="edge6" class="edge"><title>login&#45;&gt;REGISTER</title>
<path fill="none" stroke="black" d="M180.201,-767.013C194.172,-754.028 213.878,-735.714 228.446,-722.174"/>
</g>
<!-- search -->
<g id="node12" class="node"><title>search</title>
<ellipse fill="none" stroke="black" cx="248" cy="-783" rx="36.0624" ry="19.0919"/>
<text text-anchor="middle" x="248" y="-779.9" font-family="Times Roman,serif" font-size="14.00">search</text>
</g>
<!-- search&#45;&gt;REGISTER -->
<g id="edge8" class="edge"><title>search&#45;&gt;REGISTER</title>
<path fill="none" stroke="black" d="M248,-763.876C248,-751.182 248,-734.62 248,-722.133"/>
</g>
<!-- tag -->
<g id="node14" class="node"><title>tag</title>
<ellipse fill="none" stroke="black" cx="329" cy="-783" rx="27" ry="19.0919"/>
<text text-anchor="middle" x="329" y="-779.9" font-family="Times Roman,serif" font-size="14.00">tag</text>
</g>
<!-- tag&#45;&gt;REGISTER -->
<g id="edge10" class="edge"><title>tag&#45;&gt;REGISTER</title>
<path fill="none" stroke="black" d="M312.997,-767.392C299.626,-754.352 280.55,-735.746 266.521,-722.064"/>
</g>
<!-- push&#45;&gt;REGISTER -->
<g id="edge12" class="edge"><title>push&#45;&gt;REGISTER</title>
<path fill="none" stroke="black" d="M44.8449,-495.279C82.5875,-534.056 178.028,-632.111 223.362,-678.687"/>
<polygon fill="black" stroke="black" points="220.966,-681.243 230.449,-685.968 225.982,-676.36 220.966,-681.243"/>
</g>
<!-- pull&#45;&gt;IMAGE -->
<g id="edge16" class="edge"><title>pull&#45;&gt;IMAGE</title>
<path fill="none" stroke="black" d="M325.793,-615.457C355.689,-603.465 407.451,-582.704 443.598,-568.205"/>
<polygon fill="black" stroke="black" points="444.909,-571.45 452.888,-564.479 442.303,-564.953 444.909,-571.45"/>
</g>
<!-- inspect&#45;&gt;CONTAINER -->
<g id="edge36" class="edge"><title>inspect&#45;&gt;CONTAINER</title>
<path fill="none" stroke="black" d="M749.254,-460.108C753.719,-449.887 759.457,-436.754 765.064,-423.919"/>
</g>
<!-- commit -->
<g id="node39" class="node"><title>commit</title>
<ellipse fill="none" stroke="black" cx="691" cy="-625" rx="41.2167" ry="19.0919"/>
<text text-anchor="middle" x="691" y="-621.9" font-family="Times Roman,serif" font-size="14.00">commit</text>
</g>
<!-- commit&#45;&gt;IMAGE -->
<g id="edge40" class="edge"><title>commit&#45;&gt;IMAGE</title>
<path fill="none" stroke="black" d="M658.2,-613.433C622.048,-600.684 563.85,-580.16 524.786,-566.383"/>
<polygon fill="black" stroke="black" points="525.886,-563.06 515.291,-563.035 523.558,-569.662 525.886,-563.06"/>
</g>
<!-- commit&#45;&gt;CONTAINER -->
<g id="edge38" class="edge"><title>commit&#45;&gt;CONTAINER</title>
<path fill="none" stroke="black" d="M710.321,-607.988C734.163,-585.569 773.451,-543.602 789,-498 797.068,-474.337 797.061,-446.568 794.709,-423.505"/>
</g>
<!-- run&#45;&gt;Running -->
<g id="edge54" class="edge"><title>run&#45;&gt;Running</title>
<path fill="none" stroke="black" d="M484,-356.918C484,-341.926 484,-320.585 484,-302.239"/>
<polygon fill="black" stroke="black" points="487.5,-302.136 484,-292.136 480.5,-302.136 487.5,-302.136"/>
</g>
<!-- stop&#45;&gt;Stoped -->
<g id="edge78" class="edge"><title>stop&#45;&gt;Stoped</title>
<path fill="none" stroke="black" d="M484,-163.981C484,-156.364 484,-147.31 484,-138.475"/>
<polygon fill="black" stroke="black" points="487.5,-138.305 484,-128.305 480.5,-138.305 487.5,-138.305"/>
</g>
<!-- start -->
<g id="node71" class="node"><title>start</title>
<ellipse fill="none" stroke="black" cx="384" cy="-376" rx="27.7881" ry="19.0919"/>
<text text-anchor="middle" x="384" y="-372.9" font-family="Times Roman,serif" font-size="14.00">start</text>
</g>
<!-- start&#45;&gt;Running -->
<g id="edge74" class="edge"><title>start&#45;&gt;Running</title>
<path fill="none" stroke="black" d="M398.755,-359.622C414.653,-341.975 440.223,-313.593 459.216,-292.51"/>
<polygon fill="black" stroke="black" points="462.047,-294.597 466.14,-284.825 456.846,-289.912 462.047,-294.597"/>
</g>
<!-- start&#45;&gt;Stoped -->
<g id="edge76" class="edge"><title>start&#45;&gt;Stoped</title>
<path fill="none" stroke="black" d="M377.162,-357.435C364.08,-318.543 339.861,-226.919 376,-164 391.676,-136.707 424.243,-120.12 449.536,-110.868"/>
</g>
</g>
</svg>
